<svg xmlns="http://www.w3.org/2000/svg" viewBox="0 0 1550 1450" width="100%" height="100%" style="background:#ffffff; font-family: 'Times New Roman', Times, serif;">
  <!-- Title -->
  <rect x="60" y="25" width="1430" height="55" fill="#ffffff" stroke="#000000" stroke-width="1.8" />
  <text x="775.0" y="50" font-size="16" font-weight="bold" text-anchor="middle" fill="#000000">Combined ER Diagram: Student &amp; Registrar Modules (sms_db)</text>
  <text x="775.0" y="68" font-size="11" font-style="italic" text-anchor="middle" fill="#000000">Chen ER Notation | Entities: Rectangles | Relationships: Diamonds | Attributes: Ovals | Constraints: (PK) and (FK)</text>
  <line x1="465.0" y1="332.5" x2="337.5" y2="198.5" stroke="#000000" stroke-width="1" />
  <line x1="465.0" y1="332.5" x2="457.5" y2="198.5" stroke="#000000" stroke-width="1" />
  <line x1="465.0" y1="332.5" x2="577.5" y2="198.5" stroke="#000000" stroke-width="1" />
  <line x1="465.0" y1="332.5" x2="697.5" y2="198.5" stroke="#000000" stroke-width="1" />
  <line x1="465.0" y1="332.5" x2="752.5" y2="293.5" stroke="#000000" stroke-width="1" />
  <line x1="465.0" y1="332.5" x2="752.5" y2="353.5" stroke="#000000" stroke-width="1" />
  <line x1="465.0" y1="332.5" x2="752.5" y2="413.5" stroke="#000000" stroke-width="1" />
  <line x1="465.0" y1="332.5" x2="337.5" y2="508.5" stroke="#000000" stroke-width="1" />
  <line x1="465.0" y1="332.5" x2="457.5" y2="508.5" stroke="#000000" stroke-width="1" />
  <line x1="465.0" y1="332.5" x2="577.5" y2="508.5" stroke="#000000" stroke-width="1" />
  <line x1="465.0" y1="332.5" x2="697.5" y2="508.5" stroke="#000000" stroke-width="1" />
  <line x1="465.0" y1="332.5" x2="182.5" y2="323.5" stroke="#000000" stroke-width="1" />
  <line x1="465.0" y1="332.5" x2="182.5" y2="383.5" stroke="#000000" stroke-width="1" />
  <line x1="460.0" y1="835.0" x2="292.5" y2="686.0" stroke="#000000" stroke-width="1" />
  <line x1="460.0" y1="835.0" x2="402.5" y2="686.0" stroke="#000000" stroke-width="1" />
  <line x1="460.0" y1="835.0" x2="512.5" y2="686.0" stroke="#000000" stroke-width="1" />
  <line x1="460.0" y1="835.0" x2="622.5" y2="686.0" stroke="#000000" stroke-width="1" />
  <line x1="460.0" y1="835.0" x2="732.5" y2="686.0" stroke="#000000" stroke-width="1" />
  <line x1="460.0" y1="835.0" x2="752.5" y2="796.0" stroke="#000000" stroke-width="1" />
  <line x1="460.0" y1="835.0" x2="752.5" y2="856.0" stroke="#000000" stroke-width="1" />
  <line x1="460.0" y1="835.0" x2="752.5" y2="916.0" stroke="#000000" stroke-width="1" />
  <line x1="460.0" y1="835.0" x2="292.5" y2="1026.0" stroke="#000000" stroke-width="1" />
  <line x1="460.0" y1="835.0" x2="402.5" y2="1026.0" stroke="#000000" stroke-width="1" />
  <line x1="460.0" y1="835.0" x2="512.5" y2="1026.0" stroke="#000000" stroke-width="1" />
  <line x1="460.0" y1="835.0" x2="622.5" y2="1026.0" stroke="#000000" stroke-width="1" />
  <line x1="460.0" y1="835.0" x2="732.5" y2="1026.0" stroke="#000000" stroke-width="1" />
  <line x1="460.0" y1="835.0" x2="172.5" y2="796.0" stroke="#000000" stroke-width="1" />
  <line x1="460.0" y1="835.0" x2="172.5" y2="856.0" stroke="#000000" stroke-width="1" />
  <line x1="460.0" y1="835.0" x2="172.5" y2="916.0" stroke="#000000" stroke-width="1" />
  <line x1="460.0" y1="1262.5" x2="382.5" y2="1148.5" stroke="#000000" stroke-width="1" />
  <line x1="460.0" y1="1262.5" x2="512.5" y2="1148.5" stroke="#000000" stroke-width="1" />
  <line x1="460.0" y1="1262.5" x2="642.5" y2="1148.5" stroke="#000000" stroke-width="1" />
  <line x1="460.0" y1="1262.5" x2="717.5" y2="1283.5" stroke="#000000" stroke-width="1" />
  <line x1="460.0" y1="1262.5" x2="642.5" y2="1418.5" stroke="#000000" stroke-width="1" />
  <line x1="460.0" y1="1262.5" x2="512.5" y2="1418.5" stroke="#000000" stroke-width="1" />
  <line x1="460.0" y1="1262.5" x2="382.5" y2="1418.5" stroke="#000000" stroke-width="1" />
  <line x1="1020.0" y1="830.0" x2="992.5" y2="736.0" stroke="#000000" stroke-width="1" />
  <line x1="1020.0" y1="830.0" x2="1152.5" y2="736.0" stroke="#000000" stroke-width="1" />
  <line x1="1020.0" y1="830.0" x2="1072.5" y2="966.0" stroke="#000000" stroke-width="1" />
  <line x1="1020.0" y1="480.0" x2="992.5" y2="386.0" stroke="#000000" stroke-width="1" />
  <line x1="1020.0" y1="480.0" x2="1152.5" y2="386.0" stroke="#000000" stroke-width="1" />
  <line x1="1020.0" y1="480.0" x2="1072.5" y2="616.0" stroke="#000000" stroke-width="1" />
  <line x1="1020.0" y1="1180.0" x2="1012.5" y2="1091.0" stroke="#000000" stroke-width="1" />
  <line x1="1020.0" y1="1180.0" x2="1132.5" y2="1091.0" stroke="#000000" stroke-width="1" />
  <line x1="465.0" y1="332.5" x2="430.0" y2="580.0" stroke="#000000" stroke-width="1.8" />
  <line x1="460.0" y1="835.0" x2="430.0" y2="580.0" stroke="#000000" stroke-width="1.8" />
  <line x1="460.0" y1="835.0" x2="430.0" y2="1045.0" stroke="#000000" stroke-width="1.8" />
  <line x1="460.0" y1="1262.5" x2="430.0" y2="1045.0" stroke="#000000" stroke-width="1.8" />
  <line x1="460.0" y1="835.0" x2="720.0" y2="830.0" stroke="#000000" stroke-width="1.8" />
  <line x1="1020.0" y1="830.0" x2="720.0" y2="830.0" stroke="#000000" stroke-width="1.8" />
  <line x1="1020.0" y1="830.0" x2="1002.5" y2="655.0" stroke="#000000" stroke-width="1.8" />
  <line x1="1020.0" y1="480.0" x2="1002.5" y2="655.0" stroke="#000000" stroke-width="1.8" />
  <line x1="1020.0" y1="830.0" x2="1000.0" y2="1005.0" stroke="#000000" stroke-width="1.8" />
  <line x1="1020.0" y1="1180.0" x2="1000.0" y2="1005.0" stroke="#000000" stroke-width="1.8" />

  <!-- Relationship Diamond: admits -->
  <polygon points="430.0,550 480,580.0 430.0,610 380,580.0" fill="#ffffff" stroke="#000000" stroke-width="1.8" />
  <text x="430.0" y="584.0" font-size="11" font-weight="bold" text-anchor="middle" fill="#000000">admits</text>

  <!-- Relationship Diamond: receives -->
  <polygon points="430.0,1015 480,1045.0 430.0,1075 380,1045.0" fill="#ffffff" stroke="#000000" stroke-width="1.8" />
  <text x="430.0" y="1049.0" font-size="11" font-weight="bold" text-anchor="middle" fill="#000000">receives</text>

  <!-- Relationship Diamond: enrolled_in -->
  <polygon points="720.0,800 775,830.0 720.0,860 665,830.0" fill="#ffffff" stroke="#000000" stroke-width="1.8" />
  <text x="720.0" y="834.0" font-size="11" font-weight="bold" text-anchor="middle" fill="#000000">enrolled_in</text>

  <!-- Relationship Diamond: comprises -->
  <polygon points="1002.5,625 1055,655.0 1002.5,685 950,655.0" fill="#ffffff" stroke="#000000" stroke-width="1.8" />
  <text x="1002.5" y="659.0" font-size="11" font-weight="bold" text-anchor="middle" fill="#000000">comprises</text>

  <!-- Relationship Diamond: divides -->
  <polygon points="1000.0,975 1050,1005.0 1000.0,1035 950,1005.0" fill="#ffffff" stroke="#000000" stroke-width="1.8" />
  <text x="1000.0" y="1009.0" font-size="11" font-weight="bold" text-anchor="middle" fill="#000000">divides</text>

  <!-- Entity: registrar_office -->
  <rect x="380" y="300" width="170" height="65" fill="#ffffff" stroke="#000000" stroke-width="2" />
  <text x="465.0" y="337.5" font-size="13" font-weight="bold" text-anchor="middle" fill="#000000">registrar_office</text>

  <!-- Entity: student -->
  <rect x="380" y="800" width="160" height="70" fill="#ffffff" stroke="#000000" stroke-width="2" />
  <text x="460.0" y="840.0" font-size="13" font-weight="bold" text-anchor="middle" fill="#000000">student</text>

  <!-- Entity: student_score -->
  <rect x="380" y="1230" width="160" height="65" fill="#ffffff" stroke="#000000" stroke-width="2" />
  <text x="460.0" y="1267.5" font-size="13" font-weight="bold" text-anchor="middle" fill="#000000">student_score</text>

  <!-- Entity: class -->
  <rect x="950" y="800" width="140" height="60" fill="#ffffff" stroke="#000000" stroke-width="2" />
  <text x="1020.0" y="835.0" font-size="13" font-weight="bold" text-anchor="middle" fill="#000000">class</text>

  <!-- Entity: grades -->
  <rect x="950" y="450" width="140" height="60" fill="#ffffff" stroke="#000000" stroke-width="2" />
  <text x="1020.0" y="485.0" font-size="13" font-weight="bold" text-anchor="middle" fill="#000000">grades</text>

  <!-- Entity: section -->
  <rect x="950" y="1150" width="140" height="60" fill="#ffffff" stroke="#000000" stroke-width="2" />
  <text x="1020.0" y="1185.0" font-size="13" font-weight="bold" text-anchor="middle" fill="#000000">section</text>

  <ellipse cx="337.5" cy="198.5" rx="52.5" ry="21.0" fill="#ffffff" stroke="#000000" stroke-width="1.2" />
  <text x="337.5" y="196.5" font-size="10" text-decoration="underline" text-anchor="middle" fill="#000000">r_user_id</text>
  <text x="337.5" y="208.5" font-size="9" font-weight="bold" text-anchor="middle" fill="#000000">(PK)</text>
  <ellipse cx="457.5" cy="198.5" rx="52.5" ry="21.0" fill="#ffffff" stroke="#000000" stroke-width="1.2" />
  <text x="457.5" y="202.5" font-size="10" text-anchor="middle" fill="#000000">username</text>
  <ellipse cx="577.5" cy="198.5" rx="52.5" ry="21.0" fill="#ffffff" stroke="#000000" stroke-width="1.2" />
  <text x="577.5" y="202.5" font-size="10" text-anchor="middle" fill="#000000">password</text>
  <ellipse cx="697.5" cy="198.5" rx="52.5" ry="21.0" fill="#ffffff" stroke="#000000" stroke-width="1.2" />
  <text x="697.5" y="202.5" font-size="10" text-anchor="middle" fill="#000000">fname</text>
  <ellipse cx="752.5" cy="293.5" rx="52.5" ry="21.0" fill="#ffffff" stroke="#000000" stroke-width="1.2" />
  <text x="752.5" y="297.5" font-size="10" text-anchor="middle" fill="#000000">lname</text>
  <ellipse cx="752.5" cy="353.5" rx="52.5" ry="21.0" fill="#ffffff" stroke="#000000" stroke-width="1.2" />
  <text x="752.5" y="357.5" font-size="10" text-anchor="middle" fill="#000000">address</text>
  <ellipse cx="752.5" cy="413.5" rx="52.5" ry="21.0" fill="#ffffff" stroke="#000000" stroke-width="1.2" />
  <text x="752.5" y="417.5" font-size="10" text-anchor="middle" fill="#000000">employee_number</text>
  <ellipse cx="337.5" cy="508.5" rx="52.5" ry="21.0" fill="#ffffff" stroke="#000000" stroke-width="1.2" />
  <text x="337.5" y="512.5" font-size="10" text-anchor="middle" fill="#000000">date_of_birth</text>
  <ellipse cx="457.5" cy="508.5" rx="52.5" ry="21.0" fill="#ffffff" stroke="#000000" stroke-width="1.2" />
  <text x="457.5" y="512.5" font-size="10" text-anchor="middle" fill="#000000">phone_number</text>
  <ellipse cx="577.5" cy="508.5" rx="52.5" ry="21.0" fill="#ffffff" stroke="#000000" stroke-width="1.2" />
  <text x="577.5" y="512.5" font-size="10" text-anchor="middle" fill="#000000">qualification</text>
  <ellipse cx="697.5" cy="508.5" rx="52.5" ry="21.0" fill="#ffffff" stroke="#000000" stroke-width="1.2" />
  <text x="697.5" y="512.5" font-size="10" text-anchor="middle" fill="#000000">gender</text>
  <ellipse cx="182.5" cy="323.5" rx="52.5" ry="21.0" fill="#ffffff" stroke="#000000" stroke-width="1.2" />
  <text x="182.5" y="327.5" font-size="10" text-anchor="middle" fill="#000000">email_address</text>
  <ellipse cx="182.5" cy="383.5" rx="52.5" ry="21.0" fill="#ffffff" stroke="#000000" stroke-width="1.2" />
  <text x="182.5" y="387.5" font-size="10" text-anchor="middle" fill="#000000">date_of_joined</text>
  <ellipse cx="292.5" cy="686.0" rx="52.5" ry="21.0" fill="#ffffff" stroke="#000000" stroke-width="1.2" />
  <text x="292.5" y="684.0" font-size="10" text-decoration="underline" text-anchor="middle" fill="#000000">student_id</text>
  <text x="292.5" y="696.0" font-size="9" font-weight="bold" text-anchor="middle" fill="#000000">(PK)</text>
  <ellipse cx="402.5" cy="686.0" rx="52.5" ry="21.0" fill="#ffffff" stroke="#000000" stroke-width="1.2" />
  <text x="402.5" y="690.0" font-size="10" text-anchor="middle" fill="#000000">username</text>
  <ellipse cx="512.5" cy="686.0" rx="52.5" ry="21.0" fill="#ffffff" stroke="#000000" stroke-width="1.2" />
  <text x="512.5" y="690.0" font-size="10" text-anchor="middle" fill="#000000">password</text>
  <ellipse cx="622.5" cy="686.0" rx="52.5" ry="21.0" fill="#ffffff" stroke="#000000" stroke-width="1.2" />
  <text x="622.5" y="690.0" font-size="10" text-anchor="middle" fill="#000000">fname</text>
  <ellipse cx="732.5" cy="686.0" rx="52.5" ry="21.0" fill="#ffffff" stroke="#000000" stroke-width="1.2" />
  <text x="732.5" y="690.0" font-size="10" text-anchor="middle" fill="#000000">lname</text>
  <ellipse cx="752.5" cy="796.0" rx="52.5" ry="21.0" fill="#ffffff" stroke="#000000" stroke-width="1.2" />
  <text x="752.5" y="794.0" font-size="10" text-anchor="middle" fill="#000000">grade</text>
  <text x="752.5" y="806.0" font-size="9" font-weight="bold" text-anchor="middle" fill="#000000">(FK)</text>
  <ellipse cx="752.5" cy="856.0" rx="52.5" ry="21.0" fill="#ffffff" stroke="#000000" stroke-width="1.2" />
  <text x="752.5" y="854.0" font-size="10" text-anchor="middle" fill="#000000">section</text>
  <text x="752.5" y="866.0" font-size="9" font-weight="bold" text-anchor="middle" fill="#000000">(FK)</text>
  <ellipse cx="752.5" cy="916.0" rx="52.5" ry="21.0" fill="#ffffff" stroke="#000000" stroke-width="1.2" />
  <text x="752.5" y="920.0" font-size="10" text-anchor="middle" fill="#000000">address</text>
  <ellipse cx="292.5" cy="1026.0" rx="52.5" ry="21.0" fill="#ffffff" stroke="#000000" stroke-width="1.2" />
  <text x="292.5" y="1030.0" font-size="10" text-anchor="middle" fill="#000000">gender</text>
  <ellipse cx="402.5" cy="1026.0" rx="52.5" ry="21.0" fill="#ffffff" stroke="#000000" stroke-width="1.2" />
  <text x="402.5" y="1030.0" font-size="10" text-anchor="middle" fill="#000000">email_address</text>
  <ellipse cx="512.5" cy="1026.0" rx="52.5" ry="21.0" fill="#ffffff" stroke="#000000" stroke-width="1.2" />
  <text x="512.5" y="1030.0" font-size="10" text-anchor="middle" fill="#000000">date_of_birth</text>
  <ellipse cx="622.5" cy="1026.0" rx="52.5" ry="21.0" fill="#ffffff" stroke="#000000" stroke-width="1.2" />
  <text x="622.5" y="1030.0" font-size="10" text-anchor="middle" fill="#000000">date_of_joined</text>
  <ellipse cx="732.5" cy="1026.0" rx="52.5" ry="21.0" fill="#ffffff" stroke="#000000" stroke-width="1.2" />
  <text x="732.5" y="1030.0" font-size="10" text-anchor="middle" fill="#000000">parent_fname</text>
  <ellipse cx="172.5" cy="796.0" rx="52.5" ry="21.0" fill="#ffffff" stroke="#000000" stroke-width="1.2" />
  <text x="172.5" y="800.0" font-size="10" text-anchor="middle" fill="#000000">parent_lname</text>
  <ellipse cx="172.5" cy="856.0" rx="52.5" ry="21.0" fill="#ffffff" stroke="#000000" stroke-width="1.2" />
  <text x="172.5" y="860.0" font-size="10" text-anchor="middle" fill="#000000">parent_phone_number</text>
  <ellipse cx="172.5" cy="916.0" rx="52.5" ry="21.0" fill="#ffffff" stroke="#000000" stroke-width="1.2" />
  <text x="172.5" y="920.0" font-size="10" text-anchor="middle" fill="#000000">subjets</text>
  <ellipse cx="382.5" cy="1148.5" rx="52.5" ry="21.0" fill="#ffffff" stroke="#000000" stroke-width="1.2" />
  <text x="382.5" y="1146.5" font-size="10" text-decoration="underline" text-anchor="middle" fill="#000000">id</text>
  <text x="382.5" y="1158.5" font-size="9" font-weight="bold" text-anchor="middle" fill="#000000">(PK)</text>
  <ellipse cx="512.5" cy="1148.5" rx="52.5" ry="21.0" fill="#ffffff" stroke="#000000" stroke-width="1.2" />
  <text x="512.5" y="1152.5" font-size="10" text-anchor="middle" fill="#000000">semester</text>
  <ellipse cx="642.5" cy="1148.5" rx="52.5" ry="21.0" fill="#ffffff" stroke="#000000" stroke-width="1.2" />
  <text x="642.5" y="1152.5" font-size="10" text-anchor="middle" fill="#000000">year</text>
  <ellipse cx="717.5" cy="1283.5" rx="52.5" ry="21.0" fill="#ffffff" stroke="#000000" stroke-width="1.2" />
  <text x="717.5" y="1281.5" font-size="10" text-anchor="middle" fill="#000000">student_id</text>
  <text x="717.5" y="1293.5" font-size="9" font-weight="bold" text-anchor="middle" fill="#000000">(FK)</text>
  <ellipse cx="642.5" cy="1418.5" rx="52.5" ry="21.0" fill="#ffffff" stroke="#000000" stroke-width="1.2" />
  <text x="642.5" y="1416.5" font-size="10" text-anchor="middle" fill="#000000">teacher_id</text>
  <text x="642.5" y="1428.5" font-size="9" font-weight="bold" text-anchor="middle" fill="#000000">(FK)</text>
  <ellipse cx="512.5" cy="1418.5" rx="52.5" ry="21.0" fill="#ffffff" stroke="#000000" stroke-width="1.2" />
  <text x="512.5" y="1416.5" font-size="10" text-anchor="middle" fill="#000000">subject_id</text>
  <text x="512.5" y="1428.5" font-size="9" font-weight="bold" text-anchor="middle" fill="#000000">(FK)</text>
  <ellipse cx="382.5" cy="1418.5" rx="52.5" ry="21.0" fill="#ffffff" stroke="#000000" stroke-width="1.2" />
  <text x="382.5" y="1422.5" font-size="10" text-anchor="middle" fill="#000000">results</text>
  <ellipse cx="992.5" cy="736.0" rx="52.5" ry="21.0" fill="#ffffff" stroke="#000000" stroke-width="1.2" />
  <text x="992.5" y="734.0" font-size="10" text-decoration="underline" text-anchor="middle" fill="#000000">class_id</text>
  <text x="992.5" y="746.0" font-size="9" font-weight="bold" text-anchor="middle" fill="#000000">(PK)</text>
  <ellipse cx="1152.5" cy="736.0" rx="52.5" ry="21.0" fill="#ffffff" stroke="#000000" stroke-width="1.2" />
  <text x="1152.5" y="734.0" font-size="10" text-anchor="middle" fill="#000000">grade</text>
  <text x="1152.5" y="746.0" font-size="9" font-weight="bold" text-anchor="middle" fill="#000000">(FK)</text>
  <ellipse cx="1072.5" cy="966.0" rx="52.5" ry="21.0" fill="#ffffff" stroke="#000000" stroke-width="1.2" />
  <text x="1072.5" y="964.0" font-size="10" text-anchor="middle" fill="#000000">section</text>
  <text x="1072.5" y="976.0" font-size="9" font-weight="bold" text-anchor="middle" fill="#000000">(FK)</text>
  <ellipse cx="992.5" cy="386.0" rx="52.5" ry="21.0" fill="#ffffff" stroke="#000000" stroke-width="1.2" />
  <text x="992.5" y="384.0" font-size="10" text-decoration="underline" text-anchor="middle" fill="#000000">grade_id</text>
  <text x="992.5" y="396.0" font-size="9" font-weight="bold" text-anchor="middle" fill="#000000">(PK)</text>
  <ellipse cx="1152.5" cy="386.0" rx="52.5" ry="21.0" fill="#ffffff" stroke="#000000" stroke-width="1.2" />
  <text x="1152.5" y="390.0" font-size="10" text-anchor="middle" fill="#000000">grade</text>
  <ellipse cx="1072.5" cy="616.0" rx="52.5" ry="21.0" fill="#ffffff" stroke="#000000" stroke-width="1.2" />
  <text x="1072.5" y="620.0" font-size="10" text-anchor="middle" fill="#000000">grade_code</text>
  <ellipse cx="1012.5" cy="1091.0" rx="52.5" ry="21.0" fill="#ffffff" stroke="#000000" stroke-width="1.2" />
  <text x="1012.5" y="1089.0" font-size="10" text-decoration="underline" text-anchor="middle" fill="#000000">section_id</text>
  <text x="1012.5" y="1101.0" font-size="9" font-weight="bold" text-anchor="middle" fill="#000000">(PK)</text>
  <ellipse cx="1132.5" cy="1091.0" rx="52.5" ry="21.0" fill="#ffffff" stroke="#000000" stroke-width="1.2" />
  <text x="1132.5" y="1095.0" font-size="10" text-anchor="middle" fill="#000000">section</text>
  <!-- Legend Box -->
  <rect x="60" y="1360" width="1430" height="65" fill="#ffffff" stroke="#000000" stroke-width="1.2" />
  <text x="775.0" y="1376" font-size="11" font-weight="bold" text-anchor="middle" fill="#000000">ER SYMBOLS REFERENCE (Standard Chen Notation - Black &amp; White)</text>

  <!-- Entity -->
  <rect x="90" y="1386" width="70" height="28" fill="#ffffff" stroke="#000000" stroke-width="1.2" />
  <text x="125" y="1404" font-size="9" font-weight="bold" text-anchor="middle" fill="#000000">Entity</text>
  <text x="170" y="1404" font-size="10" fill="#000000"><tspan font-weight="bold">Rectangle:</tspan> Entity</text>

  <!-- Relationship -->
  <polygon points="340,1384 360,1400 340,1416 320,1400" fill="#ffffff" stroke="#000000" stroke-width="1.2" />
  <text x="340" y="1404" font-size="8" font-weight="bold" text-anchor="middle" fill="#000000">Rel</text>
  <text x="375" y="1404" font-size="10" fill="#000000"><tspan font-weight="bold">Diamond:</tspan> Relationship</text>

  <!-- Attribute -->
  <ellipse cx="570" cy="1400" rx="28" ry="14" fill="#ffffff" stroke="#000000" stroke-width="1.2" />
  <text x="570" y="1404" font-size="9" text-anchor="middle" fill="#000000">attr</text>
  <text x="610" y="1404" font-size="10" fill="#000000"><tspan font-weight="bold">Oval:</tspan> Attribute</text>

  <!-- PK -->
  <ellipse cx="765" cy="1400" rx="30" ry="16" fill="#ffffff" stroke="#000000" stroke-width="1.2" />
  <text x="765" y="1396" font-size="8" text-decoration="underline" text-anchor="middle" fill="#000000">id</text>
  <text x="765" y="1408" font-size="8" font-weight="bold" text-anchor="middle" fill="#000000">(PK)</text>
  <text x="810" y="1404" font-size="10" fill="#000000"><tspan font-weight="bold">Underlined Oval (PK):</tspan> Primary Key</text>

  <!-- FK -->
  <ellipse cx="1060" cy="1400" rx="30" ry="16" fill="#ffffff" stroke="#000000" stroke-width="1.2" />
  <text x="1060" y="1396" font-size="8" text-anchor="middle" fill="#000000">ref</text>
  <text x="1060" y="1408" font-size="8" font-weight="bold" text-anchor="middle" fill="#000000">(FK)</text>
  <text x="1105" y="1404" font-size="10" fill="#000000"><tspan font-weight="bold">Oval (FK):</tspan> Foreign Key</text>

  <!-- Line -->
  <line x1="1280" y1="1400" x2="1335" y2="1400" stroke="#000000" stroke-width="1.5" />
  <text x="1350" y="1404" font-size="10" fill="#000000"><tspan font-weight="bold">Line:</tspan> Connector</text>
</svg>